<svg class="main-svg" xmlns="http://www.w3.org/2000/svg" xmlns:xlink="http://www.w3.org/1999/xlink" width="700" height="500" style="" viewBox="0 0 700 500"><rect x="0" y="0" width="700" height="500" style="fill: rgb(255, 255, 255); fill-opacity: 1;"/><defs id="defs-c3f3f1"><g class="clips"/><g class="gradients"/></defs><g class="bglayer"/><g class="layer-below"><g class="imagelayer"/><g class="shapelayer"/></g><g class="cartesianlayer"/><g class="polarlayer"/><g class="ternarylayer"/><g class="geolayer"/><g class="funnelarealayer"/><g class="pielayer"><g class="trace" stroke-linejoin="round" style="opacity: 1;"><g class="slice"><path class="surface" d="M135.03624608116306,127.36289868781463a23.249999999999996,23.249999999999996 0 1 0 22.96375391883695,-19.612898687814635l0,-7.749999999999999a30.999999999999996,30.999999999999996 0 1 1 -30.618338558449267,26.150531583752844Z" style="pointer-events: all; stroke-width: 0; fill: rgb(253, 157, 36); fill-opacity: 1; stroke: rgb(68, 68, 68); stroke-opacity: 1;"/></g><g class="slice"><path class="surface" d="M158,107.75a23.249999999999996,23.249999999999996 0 0 0 -22.96375391883695,19.612898687814628l-7.654584639612317,-1.2123671040617896a30.999999999999996,30.999999999999996 0 0 1 30.618338558449267,-26.150531583752837Z" style="pointer-events: all; stroke-width: 0; fill: rgb(211, 211, 211); fill-opacity: 1; stroke: rgb(68, 68, 68); stroke-opacity: 1;"/></g></g><g class="trace" stroke-linejoin="round" style="opacity: 1;"><g class="slice"><path class="surface" d="M342.8153548807825,153.11206400386232a23.249999999999996,23.249999999999996 0 1 0 7.184645119217524,-45.362064003862315l0,-7.749999999999999a30.999999999999996,30.999999999999996 0 1 1 -9.579526825623365,60.482752005149756Z" style="pointer-events: all; stroke-width: 0; fill: rgb(253, 157, 36); fill-opacity: 1; stroke: rgb(68, 68, 68); stroke-opacity: 1;"/></g><g class="slice"><path class="surface" d="M350,107.75a23.249999999999996,23.249999999999996 0 0 0 -7.184645119217529,45.362064003862315l-2.394881706405843,7.370688001287439a30.999999999999996,30.999999999999996 0 0 1 9.579526825623372,-60.48275200514975Z" style="pointer-events: all; stroke-width: 0; fill: rgb(211, 211, 211); fill-opacity: 1; stroke: rgb(68, 68, 68); stroke-opacity: 1;"/></g></g><g class="trace" stroke-linejoin="round" style="opacity: 1;"><g class="slice"><path class="surface" d="M531.4447208810556,151.71590168737956a23.249999999999996,23.249999999999996 0 1 0 10.555279118944458,-43.96590168737955l0,-7.749999999999999a30.999999999999996,30.999999999999996 0 1 1 -14.073705491925946,58.6212022498394Z" style="pointer-events: all; stroke-width: 0; fill: rgb(211, 211, 211); fill-opacity: 1; stroke: rgb(68, 68, 68); stroke-opacity: 1;"/></g><g class="slice"><path class="surface" d="M542,107.75a23.249999999999996,23.249999999999996 0 0 0 -10.555279118944464,43.96590168737955l-3.5184263729814877,6.90530056245985a30.999999999999996,30.999999999999996 0 0 1 14.073705491925951,-58.6212022498394Z" style="pointer-events: all; stroke-width: 0; fill: rgb(253, 157, 36); fill-opacity: 1; stroke: rgb(68, 68, 68); stroke-opacity: 1;"/></g></g><g class="trace" stroke-linejoin="round" style="opacity: 1;"><g class="slice"><path class="surface" d="M134.75,217a23.249999999999996,23.249999999999996 0 1 0 23.249999999999996,-23.250000000000004l0,-7.749999999999999a30.999999999999996,30.999999999999996 0 1 1 -30.999999999999996,31.000000000000004Z" style="pointer-events: all; stroke-width: 0; fill: rgb(211, 211, 211); fill-opacity: 1; stroke: rgb(68, 68, 68); stroke-opacity: 1;"/></g><g class="slice"><path class="surface" d="M158,193.75a23.249999999999996,23.249999999999996 0 0 0 -23.249999999999996,23.249999999999993l-7.749999999999999,-4.745506346695993e-16a30.999999999999996,30.999999999999996 0 0 1 30.999999999999996,-30.999999999999993Z" style="pointer-events: all; stroke-width: 0; fill: rgb(253, 157, 36); fill-opacity: 1; stroke: rgb(68, 68, 68); stroke-opacity: 1;"/></g></g><g class="trace" stroke-linejoin="round" style="opacity: 1;"><g class="slice"><path class="surface" d="M350,193.75a23.249999999999996,23.249999999999996 0 1 0 2.8473038080175957e-15,46.49999999999999a23.249999999999996,23.249999999999996 0 1 0 -2.8473038080175957e-15,-46.49999999999999ZM350,186a30.999999999999996,30.999999999999996 0 1 1 3.796405077356794e-15,61.99999999999999a30.999999999999996,30.999999999999996 0 1 1 -3.796405077356794e-15,-61.99999999999999Z" style="pointer-events: all; stroke-width: 0; fill: rgb(211, 211, 211); fill-opacity: 1; stroke: rgb(68, 68, 68); stroke-opacity: 1;"/></g><g class="slice"><path class="surface" d="M350,193.75a23.249999999999996,23.249999999999996 0 0 0 0,0l0,-7.749999999999999a30.999999999999996,30.999999999999996 0 0 1 0,0Z" style="pointer-events: all; stroke-width: 0; fill: rgb(253, 157, 36); fill-opacity: 1; stroke: rgb(68, 68, 68); stroke-opacity: 1;"/></g></g><g class="trace" stroke-linejoin="round" style="opacity: 1;"><g class="slice"><path class="surface" d="M519.8879359961377,224.18464511921752a23.249999999999996,23.249999999999996 0 1 0 22.112064003862315,-30.434645119217528l0,-7.749999999999999a30.999999999999996,30.999999999999996 0 1 1 -29.482752005149756,40.57952682562337Z" style="pointer-events: all; stroke-width: 0; fill: rgb(211, 211, 211); fill-opacity: 1; stroke: rgb(68, 68, 68); stroke-opacity: 1;"/></g><g class="slice"><path class="surface" d="M542,193.75a23.249999999999996,23.249999999999996 0 0 0 -22.11206400386232,30.43464511921752l-7.37068800128744,2.3948817064058416a30.999999999999996,30.999999999999996 0 0 1 29.48275200514976,-40.57952682562336Z" style="pointer-events: all; stroke-width: 0; fill: rgb(253, 157, 36); fill-opacity: 1; stroke: rgb(68, 68, 68); stroke-opacity: 1;"/></g></g><g class="trace" stroke-linejoin="round" style="opacity: 1;"><g class="slice"><path class="surface" d="M135.03624608116303,306.6371013121854a23.250000000000007,23.250000000000007 0 1 0 22.963753918836957,-26.88710131218538l0,-7.750000000000002a31.000000000000007,31.000000000000007 0 1 1 -30.618338558449274,35.84946841624717Z" style="pointer-events: all; stroke-width: 0; fill: rgb(211, 211, 211); fill-opacity: 1; stroke: rgb(68, 68, 68); stroke-opacity: 1;"/></g><g class="slice"><path class="surface" d="M158,279.75a23.250000000000007,23.250000000000007 0 0 0 -22.963753918836957,26.887101312185372l-7.654584639612319,1.2123671040617892a31.000000000000007,31.000000000000007 0 0 1 30.618338558449278,-35.84946841624716Z" style="pointer-events: all; stroke-width: 0; fill: rgb(253, 157, 36); fill-opacity: 1; stroke: rgb(68, 68, 68); stroke-opacity: 1;"/></g></g><g class="trace" stroke-linejoin="round" style="opacity: 1;"><g class="slice"><path class="surface" d="M327.8879359961377,295.8153548807825a23.250000000000007,23.250000000000007 0 1 0 22.11206400386233,-16.06535488078248l0,-7.750000000000002a31.000000000000007,31.000000000000007 0 1 1 -29.48275200514977,21.42047317437664Z" style="pointer-events: all; stroke-width: 0; fill: rgb(211, 211, 211); fill-opacity: 1; stroke: rgb(68, 68, 68); stroke-opacity: 1;"/></g><g class="slice"><path class="surface" d="M350,279.75a23.250000000000007,23.250000000000007 0 0 0 -22.112064003862326,16.065354880782472l-7.370688001287442,-2.3948817064058434a31.000000000000007,31.000000000000007 0 0 1 29.482752005149766,-21.42047317437663Z" style="pointer-events: all; stroke-width: 0; fill: rgb(253, 157, 36); fill-opacity: 1; stroke: rgb(68, 68, 68); stroke-opacity: 1;"/></g></g><g class="trace" stroke-linejoin="round" style="opacity: 1;"><g class="slice"><path class="surface" d="M519.8879359961377,295.8153548807825a23.250000000000007,23.250000000000007 0 1 0 22.11206400386233,-16.06535488078248l0,-7.750000000000002a31.000000000000007,31.000000000000007 0 1 1 -29.48275200514977,21.42047317437664Z" style="pointer-events: all; stroke-width: 0; fill: rgb(211, 211, 211); fill-opacity: 1; stroke: rgb(68, 68, 68); stroke-opacity: 1;"/></g><g class="slice"><path class="surface" d="M542,279.75a23.250000000000007,23.250000000000007 0 0 0 -22.112064003862326,16.065354880782472l-7.370688001287442,-2.3948817064058434a31.000000000000007,31.000000000000007 0 0 1 29.482752005149766,-21.42047317437663Z" style="pointer-events: all; stroke-width: 0; fill: rgb(253, 157, 36); fill-opacity: 1; stroke: rgb(68, 68, 68); stroke-opacity: 1;"/></g></g><g class="trace" stroke-linejoin="round" style="opacity: 1;"><g class="slice"><path class="surface" d="M327.03624608116303,385.36289868781466a23.25,23.25 0 1 0 22.963753918836954,-19.612898687814635l0,-7.75a31,31 0 1 1 -30.61833855844927,26.150531583752848Z" style="pointer-events: all; stroke-width: 0; fill: rgb(211, 211, 211); fill-opacity: 1; stroke: rgb(68, 68, 68); stroke-opacity: 1;"/></g><g class="slice"><path class="surface" d="M350,365.75a23.25,23.25 0 0 0 -22.963753918836954,19.61289868781463l-7.654584639612318,-1.2123671040617896a31,31 0 0 1 30.61833855844927,-26.15053158375284Z" style="pointer-events: all; stroke-width: 0; fill: rgb(253, 157, 36); fill-opacity: 1; stroke: rgb(68, 68, 68); stroke-opacity: 1;"/></g></g></g><g class="treemaplayer"/><g class="sunburstlayer"/><g class="glimages"/><defs id="topdefs-c3f3f1"><g class="clips"/></defs><g class="layer-above"><g class="imagelayer"/><g class="shapelayer"/></g><g class="infolayer"><g class="g-gtitle"><text class="gtitle" x="35" y="50" text-anchor="start" dy="0em" style="font-family: 'Open Sans', verdana, arial, sans-serif; font-size: 17px; fill: rgb(42, 63, 95); opacity: 1; font-weight: normal; white-space: pre;">Consideraciones para una infraestructura vial adecuada.</text></g><g class="annotation" data-index="0" style="opacity: 1;"><g class="annotation-text-g" transform="rotate(0,158.7,131.89999999999998)"><g class="cursor-pointer" transform="translate(137,122)"><rect class="bg" x="0.5" y="0.5" width="43" height="18" style="stroke-width: 1px; stroke: rgb(0, 0, 0); stroke-opacity: 0; fill: rgb(0, 0, 0); fill-opacity: 0;"/><text class="annotation-text" text-anchor="middle" x="22.09375" y="14" style="font-family: 'Open Sans', verdana, arial, sans-serif; font-size: 12px; fill: rgb(42, 63, 95); fill-opacity: 1; white-space: pre;">77.5%</text></g></g></g><g class="annotation" data-index="1" style="opacity: 1;"><g class="annotation-text-g" transform="rotate(0,159.9,169.29999999999998)"><g class="cursor-pointer" transform="translate(126,161)"><rect class="bg" x="0.5" y="0.5" width="67" height="16" style="stroke-width: 1px; stroke: rgb(0, 0, 0); stroke-opacity: 0; fill: rgb(0, 0, 0); fill-opacity: 0;"/><text class="annotation-text" text-anchor="middle" x="34.140625" y="13" style="font-family: 'Open Sans', verdana, arial, sans-serif; font-size: 11px; fill: rgb(42, 63, 95); fill-opacity: 1; white-space: pre;">Iluminación</text></g></g></g><g class="annotation" data-index="2" style="opacity: 1;"><g class="annotation-text-g" transform="rotate(0,350,131.89999999999998)"><g class="cursor-pointer" transform="translate(328,122)"><rect class="bg" x="0.5" y="0.5" width="43" height="18" style="stroke-width: 1px; stroke: rgb(0, 0, 0); stroke-opacity: 0; fill: rgb(0, 0, 0); fill-opacity: 0;"/><text class="annotation-text" text-anchor="middle" x="22.09375" y="14" style="font-family: 'Open Sans', verdana, arial, sans-serif; font-size: 12px; fill: rgb(42, 63, 95); fill-opacity: 1; white-space: pre;">55.0%</text></g></g></g><g class="annotation" data-index="3" style="opacity: 1;"><g class="annotation-text-g" transform="rotate(0,350,169.29999999999998)"><g class="cursor-pointer" transform="translate(329,161)"><rect class="bg" x="0.5" y="0.5" width="42" height="16" style="stroke-width: 1px; stroke: rgb(0, 0, 0); stroke-opacity: 0; fill: rgb(0, 0, 0); fill-opacity: 0;"/><text class="annotation-text" text-anchor="middle" x="21.5625" y="13" style="font-family: 'Open Sans', verdana, arial, sans-serif; font-size: 11px; fill: rgb(42, 63, 95); fill-opacity: 1; white-space: pre;">Baches</text></g></g></g><g class="annotation" data-index="4" style="opacity: 1;"><g class="annotation-text-g" transform="rotate(0,542.38,131.89999999999998)"><g class="cursor-pointer" transform="translate(520,122)"><rect class="bg" x="0.5" y="0.5" width="43" height="18" style="stroke-width: 1px; stroke: rgb(0, 0, 0); stroke-opacity: 0; fill: rgb(0, 0, 0); fill-opacity: 0;"/><text class="annotation-text" text-anchor="middle" x="22.09375" y="14" style="font-family: 'Open Sans', verdana, arial, sans-serif; font-size: 12px; fill: rgb(42, 63, 95); fill-opacity: 1; white-space: pre;">42.5%</text></g></g></g><g class="annotation" data-index="5" style="opacity: 1;"><g class="annotation-text-g" transform="rotate(0,543.1,169.29999999999998)"><g class="cursor-pointer" transform="translate(512,161)"><rect class="bg" x="0.5" y="0.5" width="61" height="16" style="stroke-width: 1px; stroke: rgb(0, 0, 0); stroke-opacity: 0; fill: rgb(0, 0, 0); fill-opacity: 0;"/><text class="annotation-text" text-anchor="middle" x="31.078125" y="13" style="font-family: 'Open Sans', verdana, arial, sans-serif; font-size: 11px; fill: rgb(42, 63, 95); fill-opacity: 1; white-space: pre;">Banquetas</text></g></g></g><g class="annotation" data-index="6" style="opacity: 1;"><g class="annotation-text-g" transform="rotate(0,158.7,216.8)"><g class="cursor-pointer" transform="translate(137,207)"><rect class="bg" x="0.5" y="0.5" width="43" height="18" style="stroke-width: 1px; stroke: rgb(0, 0, 0); stroke-opacity: 0; fill: rgb(0, 0, 0); fill-opacity: 0;"/><text class="annotation-text" text-anchor="middle" x="22.09375" y="14" style="font-family: 'Open Sans', verdana, arial, sans-serif; font-size: 12px; fill: rgb(42, 63, 95); fill-opacity: 1; white-space: pre;">25.0%</text></g></g></g><g class="annotation" data-index="7" style="opacity: 1;"><g class="annotation-text-g" transform="rotate(0,162.28,256.8)"><g class="cursor-pointer" transform="translate(124,248)"><rect class="bg" x="0.5" y="0.5" width="75" height="16" style="stroke-width: 1px; stroke: rgb(0, 0, 0); stroke-opacity: 0; fill: rgb(0, 0, 0); fill-opacity: 0;"/><text class="annotation-text" text-anchor="middle" x="37.9375" y="13.015625" style="font-family: 'Open Sans', verdana, arial, sans-serif; font-size: 11px; fill: rgb(42, 63, 95); fill-opacity: 1; white-space: pre;">Áreas verdes</text></g></g></g><g class="annotation" data-index="8" style="opacity: 1;"><g class="annotation-text-g" transform="rotate(0,350,216.8)"><g class="cursor-pointer" transform="translate(332,207)"><rect class="bg" x="0.5" y="0.5" width="36" height="18" style="stroke-width: 1px; stroke: rgb(0, 0, 0); stroke-opacity: 0; fill: rgb(0, 0, 0); fill-opacity: 0;"/><text class="annotation-text" text-anchor="middle" x="18.28125" y="14" style="font-family: 'Open Sans', verdana, arial, sans-serif; font-size: 12px; fill: rgb(42, 63, 95); fill-opacity: 1; white-space: pre;">0.0%</text></g></g></g><g class="annotation" data-index="9" style="opacity: 1;"><g class="annotation-text-g" transform="rotate(0,350,253.6)"><g class="cursor-pointer" transform="translate(259,245)"><rect class="bg" x="0.5" y="0.5" width="181" height="16" style="stroke-width: 1px; stroke: rgb(0, 0, 0); stroke-opacity: 0; fill: rgb(0, 0, 0); fill-opacity: 0;"/><text class="annotation-text" text-anchor="middle" x="91.171875" y="13.015625" style="font-family: 'Open Sans', verdana, arial, sans-serif; font-size: 11px; fill: rgb(42, 63, 95); fill-opacity: 1; white-space: pre;">Áreas públicas de esparcimiento</text></g></g></g><g class="annotation" data-index="10" style="opacity: 1;"><g class="annotation-text-g" transform="rotate(0,350,263.2)"><g class="cursor-pointer" transform="translate(314,255)"><rect class="bg" x="0.5" y="0.5" width="71" height="16" style="stroke-width: 1px; stroke: rgb(0, 0, 0); stroke-opacity: 0; fill: rgb(0, 0, 0); fill-opacity: 0;"/><text class="annotation-text" text-anchor="middle" x="35.8125" y="13" style="font-family: 'Open Sans', verdana, arial, sans-serif; font-size: 11px; fill: rgb(42, 63, 95); fill-opacity: 1; white-space: pre;">y recreación</text></g></g></g><g class="annotation" data-index="11" style="opacity: 1;"><g class="annotation-text-g" transform="rotate(0,541.3,216.8)"><g class="cursor-pointer" transform="translate(519,207)"><rect class="bg" x="0.5" y="0.5" width="43" height="18" style="stroke-width: 1px; stroke: rgb(0, 0, 0); stroke-opacity: 0; fill: rgb(0, 0, 0); fill-opacity: 0;"/><text class="annotation-text" text-anchor="middle" x="22.09375" y="14" style="font-family: 'Open Sans', verdana, arial, sans-serif; font-size: 12px; fill: rgb(42, 63, 95); fill-opacity: 1; white-space: pre;">30.0%</text></g></g></g><g class="annotation" data-index="12" style="opacity: 1;"><g class="annotation-text-g" transform="rotate(0,544.0999999999999,256.8)"><g class="cursor-pointer" transform="translate(501,248)"><rect class="bg" x="0.5" y="0.5" width="86" height="16" style="stroke-width: 1px; stroke: rgb(0, 0, 0); stroke-opacity: 0; fill: rgb(0, 0, 0); fill-opacity: 0;"/><text class="annotation-text" text-anchor="middle" x="43.484375" y="13" style="font-family: 'Open Sans', verdana, arial, sans-serif; font-size: 11px; fill: rgb(42, 63, 95); fill-opacity: 1; white-space: pre;">Pasos de cebra</text></g></g></g><g class="annotation" data-index="13" style="opacity: 1;"><g class="annotation-text-g" transform="rotate(0,158.7,304.9)"><g class="cursor-pointer" transform="translate(137,295)"><rect class="bg" x="0.5" y="0.5" width="43" height="18" style="stroke-width: 1px; stroke: rgb(0, 0, 0); stroke-opacity: 0; fill: rgb(0, 0, 0); fill-opacity: 0;"/><text class="annotation-text" text-anchor="middle" x="22.09375" y="14" style="font-family: 'Open Sans', verdana, arial, sans-serif; font-size: 12px; fill: rgb(42, 63, 95); fill-opacity: 1; white-space: pre;">27.5%</text></g></g></g><g class="annotation" data-index="14" style="opacity: 1;"><g class="annotation-text-g" transform="rotate(0,158,344.3)"><g class="cursor-pointer" transform="translate(94,336)"><rect class="bg" x="0.5" y="0.5" width="128" height="16" style="stroke-width: 1px; stroke: rgb(0, 0, 0); stroke-opacity: 0; fill: rgb(0, 0, 0); fill-opacity: 0;"/><text class="annotation-text" text-anchor="middle" x="64.609375" y="13" style="font-family: 'Open Sans', verdana, arial, sans-serif; font-size: 11px; fill: rgb(42, 63, 95); fill-opacity: 1; white-space: pre;">Rejas de alcantarillado</text></g></g></g><g class="annotation" data-index="15" style="opacity: 1;"><g class="annotation-text-g" transform="rotate(0,350,304.9)"><g class="cursor-pointer" transform="translate(328,295)"><rect class="bg" x="0.5" y="0.5" width="43" height="18" style="stroke-width: 1px; stroke: rgb(0, 0, 0); stroke-opacity: 0; fill: rgb(0, 0, 0); fill-opacity: 0;"/><text class="annotation-text" text-anchor="middle" x="22.09375" y="14" style="font-family: 'Open Sans', verdana, arial, sans-serif; font-size: 12px; fill: rgb(42, 63, 95); fill-opacity: 1; white-space: pre;">20.0%</text></g></g></g><g class="annotation" data-index="16" style="opacity: 1;"><g class="annotation-text-g" transform="rotate(0,350,344.3)"><g class="cursor-pointer" transform="translate(312,336)"><rect class="bg" x="0.5" y="0.5" width="75" height="16" style="stroke-width: 1px; stroke: rgb(0, 0, 0); stroke-opacity: 0; fill: rgb(0, 0, 0); fill-opacity: 0;"/><text class="annotation-text" text-anchor="middle" x="37.890625" y="13" style="font-family: 'Open Sans', verdana, arial, sans-serif; font-size: 11px; fill: rgb(42, 63, 95); fill-opacity: 1; white-space: pre;">Pasos a nivel</text></g></g></g><g class="annotation" data-index="17" style="opacity: 1;"><g class="annotation-text-g" transform="rotate(0,541.3,304.9)"><g class="cursor-pointer" transform="translate(519,295)"><rect class="bg" x="0.5" y="0.5" width="43" height="18" style="stroke-width: 1px; stroke: rgb(0, 0, 0); stroke-opacity: 0; fill: rgb(0, 0, 0); fill-opacity: 0;"/><text class="annotation-text" text-anchor="middle" x="22.09375" y="14" style="font-family: 'Open Sans', verdana, arial, sans-serif; font-size: 12px; fill: rgb(42, 63, 95); fill-opacity: 1; white-space: pre;">20.0%</text></g></g></g><g class="annotation" data-index="18" style="opacity: 1;"><g class="annotation-text-g" transform="rotate(0,542.2,337.9)"><g class="cursor-pointer" transform="translate(475,329)"><rect class="bg" x="0.5" y="0.5" width="133" height="16" style="stroke-width: 1px; stroke: rgb(0, 0, 0); stroke-opacity: 0; fill: rgb(0, 0, 0); fill-opacity: 0;"/><text class="annotation-text" text-anchor="middle" x="66.84375" y="13.015625" style="font-family: 'Open Sans', verdana, arial, sans-serif; font-size: 11px; fill: rgb(42, 63, 95); fill-opacity: 1; white-space: pre;">Áreas de esparcimiento</text></g></g></g><g class="annotation" data-index="19" style="opacity: 1;"><g class="annotation-text-g" transform="rotate(0,544.5,350.70000000000005)"><g class="cursor-pointer" transform="translate(523,342)"><rect class="bg" x="0.5" y="0.5" width="42" height="16" style="stroke-width: 1px; stroke: rgb(0, 0, 0); stroke-opacity: 0; fill: rgb(0, 0, 0); fill-opacity: 0;"/><text class="annotation-text" text-anchor="middle" x="21.5625" y="13" style="font-family: 'Open Sans', verdana, arial, sans-serif; font-size: 11px; fill: rgb(42, 63, 95); fill-opacity: 1; white-space: pre;">público</text></g></g></g><g class="annotation" data-index="20" style="opacity: 1;"><g class="annotation-text-g" transform="rotate(0,350,389.70000000000005)"><g class="cursor-pointer" transform="translate(328,380)"><rect class="bg" x="0.5" y="0.5" width="43" height="18" style="stroke-width: 1px; stroke: rgb(0, 0, 0); stroke-opacity: 0; fill: rgb(0, 0, 0); fill-opacity: 0;"/><text class="annotation-text" text-anchor="middle" x="22.09375" y="14" style="font-family: 'Open Sans', verdana, arial, sans-serif; font-size: 12px; fill: rgb(42, 63, 95); fill-opacity: 1; white-space: pre;">22.5%</text></g></g></g><g class="annotation" data-index="21" style="opacity: 1;"><g class="annotation-text-g" transform="rotate(0,350,427.5)"><g class="cursor-pointer" transform="translate(333,419)"><rect class="bg" x="0.5" y="0.5" width="33" height="16" style="stroke-width: 1px; stroke: rgb(0, 0, 0); stroke-opacity: 0; fill: rgb(0, 0, 0); fill-opacity: 0;"/><text class="annotation-text" text-anchor="middle" x="17.0625" y="13" style="font-family: 'Open Sans', verdana, arial, sans-serif; font-size: 11px; fill: rgb(42, 63, 95); fill-opacity: 1; white-space: pre;">Otros</text></g></g></g></g></svg>