<svg class="main-svg" xmlns="http://www.w3.org/2000/svg" xmlns:xlink="http://www.w3.org/1999/xlink" width="700" height="500" style="" viewBox="0 0 700 500"><rect x="0" y="0" width="700" height="500" style="fill: rgb(255, 255, 255); fill-opacity: 1;"/><defs id="defs-8305db"><g class="clips"/><g class="gradients"/></defs><g class="bglayer"/><g class="layer-below"><g class="imagelayer"/><g class="shapelayer"/></g><g class="cartesianlayer"/><g class="polarlayer"/><g class="ternarylayer"/><g class="geolayer"/><g class="funnelarealayer"/><g class="pielayer"><g class="trace" stroke-linejoin="round" style="opacity: 1;"><g class="slice"><path class="surface" d="M138.01228145577915,142.8765991511463a23.249999999999996,23.249999999999996 0 1 0 19.98771854422086,-35.126599151146316l0,-7.749999999999999a30.999999999999996,30.999999999999996 0 1 1 -26.65029139229448,46.835465534861754Z" style="pointer-events: all; stroke-width: 0; fill: rgb(253, 157, 36); fill-opacity: 1; stroke: rgb(68, 68, 68); stroke-opacity: 1;"/></g><g class="slice"><path class="surface" d="M158,107.75a23.249999999999996,23.249999999999996 0 0 0 -19.98771854422087,35.1265991511463l-6.662572848073623,3.958866383715434a30.999999999999996,30.999999999999996 0 0 1 26.65029139229449,-46.83546553486173Z" style="pointer-events: all; stroke-width: 0; fill: rgb(211, 211, 211); fill-opacity: 1; stroke: rgb(68, 68, 68); stroke-opacity: 1;"/></g></g><g class="trace" stroke-linejoin="round" style="opacity: 1;"><g class="slice"><path class="surface" d="M330.2392266650168,118.74951685836767a23.249999999999996,23.249999999999996 0 1 0 19.760773334983174,-10.99951685836767l0,-7.749999999999999a30.999999999999996,30.999999999999996 0 1 1 -26.347697779977565,14.66602247782356Z" style="pointer-events: all; stroke-width: 0; fill: rgb(253, 157, 36); fill-opacity: 1; stroke: rgb(68, 68, 68); stroke-opacity: 1;"/></g><g class="slice"><path class="surface" d="M350,107.75a23.249999999999996,23.249999999999996 0 0 0 -19.76077333498316,10.999516858367652l-6.586924444994387,-4.083494380544115a30.999999999999996,30.999999999999996 0 0 1 26.347697779977548,-14.666022477823535Z" style="pointer-events: all; stroke-width: 0; fill: rgb(211, 211, 211); fill-opacity: 1; stroke: rgb(68, 68, 68); stroke-opacity: 1;"/></g></g><g class="trace" stroke-linejoin="round" style="opacity: 1;"><g class="slice"><path class="surface" d="M536.3706006564163,153.5581994633982a23.249999999999996,23.249999999999996 0 1 0 5.629399343583682,-45.80819946339821l0,-7.749999999999999a30.999999999999996,30.999999999999996 0 1 1 -7.505865791444909,61.07759928453095Z" style="pointer-events: all; stroke-width: 0; fill: rgb(253, 157, 36); fill-opacity: 1; stroke: rgb(68, 68, 68); stroke-opacity: 1;"/></g><g class="slice"><path class="surface" d="M542,107.75a23.249999999999996,23.249999999999996 0 0 0 -5.629399343583697,45.80819946339821l-1.8764664478612323,7.519399821132737a30.999999999999996,30.999999999999996 0 0 1 7.505865791444929,-61.07759928453095Z" style="pointer-events: all; stroke-width: 0; fill: rgb(211, 211, 211); fill-opacity: 1; stroke: rgb(68, 68, 68); stroke-opacity: 1;"/></g></g><g class="trace" stroke-linejoin="round" style="opacity: 1;"><g class="slice"><path class="surface" d="M158,193.75a23.249999999999996,23.249999999999996 0 1 0 1.3172377937031551e-14,46.49999999999999a23.249999999999996,23.249999999999996 0 1 0 -1.3172377937031551e-14,-46.49999999999999ZM158,186a30.999999999999996,30.999999999999996 0 1 1 1.7563170582708734e-14,61.99999999999999a30.999999999999996,30.999999999999996 0 1 1 -1.7563170582708734e-14,-61.99999999999999Z" style="pointer-events: all; stroke-width: 0; fill: rgb(211, 211, 211); fill-opacity: 1; stroke: rgb(68, 68, 68); stroke-opacity: 1;"/></g><g class="slice"><path class="surface" d="M158,193.75a23.249999999999996,23.249999999999996 0 0 0 0,0l0,-7.749999999999999a30.999999999999996,30.999999999999996 0 0 1 0,0Z" style="pointer-events: all; stroke-width: 0; fill: rgb(253, 157, 36); fill-opacity: 1; stroke: rgb(68, 68, 68); stroke-opacity: 1;"/></g></g><g class="trace" stroke-linejoin="round" style="opacity: 1;"><g class="slice"><path class="surface" d="M350,193.75a23.249999999999996,23.249999999999996 0 1 0 1.3172377937031551e-14,46.49999999999999a23.249999999999996,23.249999999999996 0 1 0 -1.3172377937031551e-14,-46.49999999999999ZM350,186a30.999999999999996,30.999999999999996 0 1 1 1.7563170582708734e-14,61.99999999999999a30.999999999999996,30.999999999999996 0 1 1 -1.7563170582708734e-14,-61.99999999999999Z" style="pointer-events: all; stroke-width: 0; fill: rgb(211, 211, 211); fill-opacity: 1; stroke: rgb(68, 68, 68); stroke-opacity: 1;"/></g><g class="slice"><path class="surface" d="M350,193.75a23.249999999999996,23.249999999999996 0 0 0 0,0l0,-7.749999999999999a30.999999999999996,30.999999999999996 0 0 1 0,0Z" style="pointer-events: all; stroke-width: 0; fill: rgb(253, 157, 36); fill-opacity: 1; stroke: rgb(68, 68, 68); stroke-opacity: 1;"/></g></g><g class="trace" stroke-linejoin="round" style="opacity: 1;"><g class="slice"><path class="surface" d="M526.4318819692816,234.26835837541077a23.249999999999996,23.249999999999996 0 1 0 15.568118030718432,-40.51835837541078l0,-7.749999999999999a30.999999999999996,30.999999999999996 0 1 1 -20.757490707624576,54.024477833881036Z" style="pointer-events: all; stroke-width: 0; fill: rgb(211, 211, 211); fill-opacity: 1; stroke: rgb(68, 68, 68); stroke-opacity: 1;"/></g><g class="slice"><path class="surface" d="M542,193.75a23.249999999999996,23.249999999999996 0 0 0 -15.568118030718445,40.51835837541077l-5.189372676906149,5.7561194584702555a30.999999999999996,30.999999999999996 0 0 1 20.757490707624594,-54.02447783388102Z" style="pointer-events: all; stroke-width: 0; fill: rgb(253, 157, 36); fill-opacity: 1; stroke: rgb(68, 68, 68); stroke-opacity: 1;"/></g></g><g class="trace" stroke-linejoin="round" style="opacity: 1;"><g class="slice"><path class="surface" d="M138.96168616418586,316.34560250753213a23.250000000000007,23.250000000000007 0 1 0 19.038313835814133,-36.59560250753215l0,-7.750000000000002a31.000000000000007,31.000000000000007 0 1 1 -25.38441844775218,48.794136676709535Z" style="pointer-events: all; stroke-width: 0; fill: rgb(211, 211, 211); fill-opacity: 1; stroke: rgb(68, 68, 68); stroke-opacity: 1;"/></g><g class="slice"><path class="surface" d="M158,279.75a23.250000000000007,23.250000000000007 0 0 0 -19.03831383581414,36.59560250753215l-6.346104611938046,4.448534169177381a31.000000000000007,31.000000000000007 0 0 1 25.384418447752186,-48.79413667670953Z" style="pointer-events: all; stroke-width: 0; fill: rgb(253, 157, 36); fill-opacity: 1; stroke: rgb(68, 68, 68); stroke-opacity: 1;"/></g></g><g class="trace" stroke-linejoin="round" style="opacity: 1;"><g class="slice"><path class="surface" d="M327.2020909971172,307.5626576790588a23.250000000000007,23.250000000000007 0 1 0 22.797909002882832,-27.8126576790588l0,-7.750000000000002a31.000000000000007,31.000000000000007 0 1 1 -30.397212003843777,37.0835435720784Z" style="pointer-events: all; stroke-width: 0; fill: rgb(211, 211, 211); fill-opacity: 1; stroke: rgb(68, 68, 68); stroke-opacity: 1;"/></g><g class="slice"><path class="surface" d="M350,279.75a23.250000000000007,23.250000000000007 0 0 0 -22.79790900288284,27.812657679058773l-7.599303000960946,1.5208858930195892a31.000000000000007,31.000000000000007 0 0 1 30.397212003843784,-37.08354357207836Z" style="pointer-events: all; stroke-width: 0; fill: rgb(253, 157, 36); fill-opacity: 1; stroke: rgb(68, 68, 68); stroke-opacity: 1;"/></g></g><g class="trace" stroke-linejoin="round" style="opacity: 1;"><g class="slice"><path class="surface" d="M519.99856157974,295.4834045313381a23.250000000000007,23.250000000000007 0 1 0 22.001438420259973,-15.733404531338113l0,-7.750000000000002a31.000000000000007,31.000000000000007 0 1 1 -29.3352512270133,20.977872708450818Z" style="pointer-events: all; stroke-width: 0; fill: rgb(211, 211, 211); fill-opacity: 1; stroke: rgb(68, 68, 68); stroke-opacity: 1;"/></g><g class="slice"><path class="surface" d="M542,279.75a23.250000000000007,23.250000000000007 0 0 0 -22.00143842025997,15.733404531338092l-7.333812806753323,-2.505531822887304a31.000000000000007,31.000000000000007 0 0 1 29.33525122701329,-20.97787270845079Z" style="pointer-events: all; stroke-width: 0; fill: rgb(253, 157, 36); fill-opacity: 1; stroke: rgb(68, 68, 68); stroke-opacity: 1;"/></g></g><g class="trace" stroke-linejoin="round" style="opacity: 1;"><g class="slice"><path class="surface" d="M326.7757074933796,390.09304051477403a23.25,23.25 0 1 0 23.22429250662036,-24.343040514774035l0,-7.75a31,31 0 1 1 -30.96572334216048,32.45738735303205Z" style="pointer-events: all; stroke-width: 0; fill: rgb(211, 211, 211); fill-opacity: 1; stroke: rgb(68, 68, 68); stroke-opacity: 1;"/></g><g class="slice"><path class="surface" d="M350,365.75a23.25,23.25 0 0 0 -23.22429250662036,24.343040514774014l-7.74143083554012,0.364346838258004a31,31 0 0 1 30.96572334216048,-32.45738735303202Z" style="pointer-events: all; stroke-width: 0; fill: rgb(253, 157, 36); fill-opacity: 1; stroke: rgb(68, 68, 68); stroke-opacity: 1;"/></g></g></g><g class="treemaplayer"/><g class="sunburstlayer"/><g class="glimages"/><defs id="topdefs-8305db"><g class="clips"/></defs><g class="layer-above"><g class="imagelayer"/><g class="shapelayer"/></g><g class="infolayer"><g class="g-gtitle"><text class="gtitle" x="35" y="50" text-anchor="start" dy="0em" style="font-family: 'Open Sans', verdana, arial, sans-serif; font-size: 17px; fill: rgb(42, 63, 95); opacity: 1; font-weight: normal; white-space: pre;">Consideraciones para una infraestructura vial adecuada.</text></g><g class="annotation" data-index="0" style="opacity: 1;"><g class="annotation-text-g" transform="rotate(0,158.7,131.89999999999998)"><g class="cursor-pointer" transform="translate(137,122)"><rect class="bg" x="0.5" y="0.5" width="43" height="18" style="stroke-width: 1px; stroke: rgb(0, 0, 0); stroke-opacity: 0; fill: rgb(0, 0, 0); fill-opacity: 0;"/><text class="annotation-text" text-anchor="middle" x="22.09375" y="14" style="font-family: 'Open Sans', verdana, arial, sans-serif; font-size: 12px; fill: rgb(42, 63, 95); fill-opacity: 1; white-space: pre;">66.5%</text></g></g></g><g class="annotation" data-index="1" style="opacity: 1;"><g class="annotation-text-g" transform="rotate(0,159.9,169.29999999999998)"><g class="cursor-pointer" transform="translate(126,161)"><rect class="bg" x="0.5" y="0.5" width="67" height="16" style="stroke-width: 1px; stroke: rgb(0, 0, 0); stroke-opacity: 0; fill: rgb(0, 0, 0); fill-opacity: 0;"/><text class="annotation-text" text-anchor="middle" x="34.140625" y="13" style="font-family: 'Open Sans', verdana, arial, sans-serif; font-size: 11px; fill: rgb(42, 63, 95); fill-opacity: 1; white-space: pre;">Iluminación</text></g></g></g><g class="annotation" data-index="2" style="opacity: 1;"><g class="annotation-text-g" transform="rotate(0,350,131.89999999999998)"><g class="cursor-pointer" transform="translate(328,122)"><rect class="bg" x="0.5" y="0.5" width="43" height="18" style="stroke-width: 1px; stroke: rgb(0, 0, 0); stroke-opacity: 0; fill: rgb(0, 0, 0); fill-opacity: 0;"/><text class="annotation-text" text-anchor="middle" x="22.09375" y="14" style="font-family: 'Open Sans', verdana, arial, sans-serif; font-size: 12px; fill: rgb(42, 63, 95); fill-opacity: 1; white-space: pre;">83.8%</text></g></g></g><g class="annotation" data-index="3" style="opacity: 1;"><g class="annotation-text-g" transform="rotate(0,350,169.29999999999998)"><g class="cursor-pointer" transform="translate(329,161)"><rect class="bg" x="0.5" y="0.5" width="42" height="16" style="stroke-width: 1px; stroke: rgb(0, 0, 0); stroke-opacity: 0; fill: rgb(0, 0, 0); fill-opacity: 0;"/><text class="annotation-text" text-anchor="middle" x="21.5625" y="13" style="font-family: 'Open Sans', verdana, arial, sans-serif; font-size: 11px; fill: rgb(42, 63, 95); fill-opacity: 1; white-space: pre;">Baches</text></g></g></g><g class="annotation" data-index="4" style="opacity: 1;"><g class="annotation-text-g" transform="rotate(0,542.38,131.89999999999998)"><g class="cursor-pointer" transform="translate(520,122)"><rect class="bg" x="0.5" y="0.5" width="43" height="18" style="stroke-width: 1px; stroke: rgb(0, 0, 0); stroke-opacity: 0; fill: rgb(0, 0, 0); fill-opacity: 0;"/><text class="annotation-text" text-anchor="middle" x="22.09375" y="14" style="font-family: 'Open Sans', verdana, arial, sans-serif; font-size: 12px; fill: rgb(42, 63, 95); fill-opacity: 1; white-space: pre;">53.9%</text></g></g></g><g class="annotation" data-index="5" style="opacity: 1;"><g class="annotation-text-g" transform="rotate(0,543.1,169.29999999999998)"><g class="cursor-pointer" transform="translate(512,161)"><rect class="bg" x="0.5" y="0.5" width="61" height="16" style="stroke-width: 1px; stroke: rgb(0, 0, 0); stroke-opacity: 0; fill: rgb(0, 0, 0); fill-opacity: 0;"/><text class="annotation-text" text-anchor="middle" x="31.078125" y="13" style="font-family: 'Open Sans', verdana, arial, sans-serif; font-size: 11px; fill: rgb(42, 63, 95); fill-opacity: 1; white-space: pre;">Banquetas</text></g></g></g><g class="annotation" data-index="6" style="opacity: 1;"><g class="annotation-text-g" transform="rotate(0,155.2,216.8)"><g class="cursor-pointer" transform="translate(137,207)"><rect class="bg" x="0.5" y="0.5" width="36" height="18" style="stroke-width: 1px; stroke: rgb(0, 0, 0); stroke-opacity: 0; fill: rgb(0, 0, 0); fill-opacity: 0;"/><text class="annotation-text" text-anchor="middle" x="18.28125" y="14" style="font-family: 'Open Sans', verdana, arial, sans-serif; font-size: 12px; fill: rgb(42, 63, 95); fill-opacity: 1; white-space: pre;">0.0%</text></g></g></g><g class="annotation" data-index="7" style="opacity: 1;"><g class="annotation-text-g" transform="rotate(0,162.28,256.8)"><g class="cursor-pointer" transform="translate(124,248)"><rect class="bg" x="0.5" y="0.5" width="75" height="16" style="stroke-width: 1px; stroke: rgb(0, 0, 0); stroke-opacity: 0; fill: rgb(0, 0, 0); fill-opacity: 0;"/><text class="annotation-text" text-anchor="middle" x="37.9375" y="13.015625" style="font-family: 'Open Sans', verdana, arial, sans-serif; font-size: 11px; fill: rgb(42, 63, 95); fill-opacity: 1; white-space: pre;">Áreas verdes</text></g></g></g><g class="annotation" data-index="8" style="opacity: 1;"><g class="annotation-text-g" transform="rotate(0,350,216.8)"><g class="cursor-pointer" transform="translate(332,207)"><rect class="bg" x="0.5" y="0.5" width="36" height="18" style="stroke-width: 1px; stroke: rgb(0, 0, 0); stroke-opacity: 0; fill: rgb(0, 0, 0); fill-opacity: 0;"/><text class="annotation-text" text-anchor="middle" x="18.28125" y="14" style="font-family: 'Open Sans', verdana, arial, sans-serif; font-size: 12px; fill: rgb(42, 63, 95); fill-opacity: 1; white-space: pre;">0.0%</text></g></g></g><g class="annotation" data-index="9" style="opacity: 1;"><g class="annotation-text-g" transform="rotate(0,350,253.6)"><g class="cursor-pointer" transform="translate(259,245)"><rect class="bg" x="0.5" y="0.5" width="181" height="16" style="stroke-width: 1px; stroke: rgb(0, 0, 0); stroke-opacity: 0; fill: rgb(0, 0, 0); fill-opacity: 0;"/><text class="annotation-text" text-anchor="middle" x="91.171875" y="13.015625" style="font-family: 'Open Sans', verdana, arial, sans-serif; font-size: 11px; fill: rgb(42, 63, 95); fill-opacity: 1; white-space: pre;">Áreas públicas de esparcimiento</text></g></g></g><g class="annotation" data-index="10" style="opacity: 1;"><g class="annotation-text-g" transform="rotate(0,350,263.2)"><g class="cursor-pointer" transform="translate(314,255)"><rect class="bg" x="0.5" y="0.5" width="71" height="16" style="stroke-width: 1px; stroke: rgb(0, 0, 0); stroke-opacity: 0; fill: rgb(0, 0, 0); fill-opacity: 0;"/><text class="annotation-text" text-anchor="middle" x="35.8125" y="13" style="font-family: 'Open Sans', verdana, arial, sans-serif; font-size: 11px; fill: rgb(42, 63, 95); fill-opacity: 1; white-space: pre;">y recreación</text></g></g></g><g class="annotation" data-index="11" style="opacity: 1;"><g class="annotation-text-g" transform="rotate(0,541.3,216.8)"><g class="cursor-pointer" transform="translate(519,207)"><rect class="bg" x="0.5" y="0.5" width="43" height="18" style="stroke-width: 1px; stroke: rgb(0, 0, 0); stroke-opacity: 0; fill: rgb(0, 0, 0); fill-opacity: 0;"/><text class="annotation-text" text-anchor="middle" x="22.09375" y="14" style="font-family: 'Open Sans', verdana, arial, sans-serif; font-size: 12px; fill: rgb(42, 63, 95); fill-opacity: 1; white-space: pre;">38.3%</text></g></g></g><g class="annotation" data-index="12" style="opacity: 1;"><g class="annotation-text-g" transform="rotate(0,544.0999999999999,256.8)"><g class="cursor-pointer" transform="translate(501,248)"><rect class="bg" x="0.5" y="0.5" width="86" height="16" style="stroke-width: 1px; stroke: rgb(0, 0, 0); stroke-opacity: 0; fill: rgb(0, 0, 0); fill-opacity: 0;"/><text class="annotation-text" text-anchor="middle" x="43.484375" y="13" style="font-family: 'Open Sans', verdana, arial, sans-serif; font-size: 11px; fill: rgb(42, 63, 95); fill-opacity: 1; white-space: pre;">Pasos de cebra</text></g></g></g><g class="annotation" data-index="13" style="opacity: 1;"><g class="annotation-text-g" transform="rotate(0,158.7,304.9)"><g class="cursor-pointer" transform="translate(137,295)"><rect class="bg" x="0.5" y="0.5" width="43" height="18" style="stroke-width: 1px; stroke: rgb(0, 0, 0); stroke-opacity: 0; fill: rgb(0, 0, 0); fill-opacity: 0;"/><text class="annotation-text" text-anchor="middle" x="22.09375" y="14" style="font-family: 'Open Sans', verdana, arial, sans-serif; font-size: 12px; fill: rgb(42, 63, 95); fill-opacity: 1; white-space: pre;">34.7%</text></g></g></g><g class="annotation" data-index="14" style="opacity: 1;"><g class="annotation-text-g" transform="rotate(0,158,344.3)"><g class="cursor-pointer" transform="translate(94,336)"><rect class="bg" x="0.5" y="0.5" width="128" height="16" style="stroke-width: 1px; stroke: rgb(0, 0, 0); stroke-opacity: 0; fill: rgb(0, 0, 0); fill-opacity: 0;"/><text class="annotation-text" text-anchor="middle" x="64.609375" y="13" style="font-family: 'Open Sans', verdana, arial, sans-serif; font-size: 11px; fill: rgb(42, 63, 95); fill-opacity: 1; white-space: pre;">Rejas de alcantarillado</text></g></g></g><g class="annotation" data-index="15" style="opacity: 1;"><g class="annotation-text-g" transform="rotate(0,350,304.9)"><g class="cursor-pointer" transform="translate(328,295)"><rect class="bg" x="0.5" y="0.5" width="43" height="18" style="stroke-width: 1px; stroke: rgb(0, 0, 0); stroke-opacity: 0; fill: rgb(0, 0, 0); fill-opacity: 0;"/><text class="annotation-text" text-anchor="middle" x="22.09375" y="14" style="font-family: 'Open Sans', verdana, arial, sans-serif; font-size: 12px; fill: rgb(42, 63, 95); fill-opacity: 1; white-space: pre;">28.1%</text></g></g></g><g class="annotation" data-index="16" style="opacity: 1;"><g class="annotation-text-g" transform="rotate(0,350,344.3)"><g class="cursor-pointer" transform="translate(312,336)"><rect class="bg" x="0.5" y="0.5" width="75" height="16" style="stroke-width: 1px; stroke: rgb(0, 0, 0); stroke-opacity: 0; fill: rgb(0, 0, 0); fill-opacity: 0;"/><text class="annotation-text" text-anchor="middle" x="37.890625" y="13" style="font-family: 'Open Sans', verdana, arial, sans-serif; font-size: 11px; fill: rgb(42, 63, 95); fill-opacity: 1; white-space: pre;">Pasos a nivel</text></g></g></g><g class="annotation" data-index="17" style="opacity: 1;"><g class="annotation-text-g" transform="rotate(0,541.3,304.9)"><g class="cursor-pointer" transform="translate(519,295)"><rect class="bg" x="0.5" y="0.5" width="43" height="18" style="stroke-width: 1px; stroke: rgb(0, 0, 0); stroke-opacity: 0; fill: rgb(0, 0, 0); fill-opacity: 0;"/><text class="annotation-text" text-anchor="middle" x="22.09375" y="14" style="font-family: 'Open Sans', verdana, arial, sans-serif; font-size: 12px; fill: rgb(42, 63, 95); fill-opacity: 1; white-space: pre;">19.8%</text></g></g></g><g class="annotation" data-index="18" style="opacity: 1;"><g class="annotation-text-g" transform="rotate(0,542.2,337.9)"><g class="cursor-pointer" transform="translate(475,329)"><rect class="bg" x="0.5" y="0.5" width="133" height="16" style="stroke-width: 1px; stroke: rgb(0, 0, 0); stroke-opacity: 0; fill: rgb(0, 0, 0); fill-opacity: 0;"/><text class="annotation-text" text-anchor="middle" x="66.84375" y="13.015625" style="font-family: 'Open Sans', verdana, arial, sans-serif; font-size: 11px; fill: rgb(42, 63, 95); fill-opacity: 1; white-space: pre;">Áreas de esparcimiento</text></g></g></g><g class="annotation" data-index="19" style="opacity: 1;"><g class="annotation-text-g" transform="rotate(0,544.5,350.70000000000005)"><g class="cursor-pointer" transform="translate(523,342)"><rect class="bg" x="0.5" y="0.5" width="42" height="16" style="stroke-width: 1px; stroke: rgb(0, 0, 0); stroke-opacity: 0; fill: rgb(0, 0, 0); fill-opacity: 0;"/><text class="annotation-text" text-anchor="middle" x="21.5625" y="13" style="font-family: 'Open Sans', verdana, arial, sans-serif; font-size: 11px; fill: rgb(42, 63, 95); fill-opacity: 1; white-space: pre;">público</text></g></g></g><g class="annotation" data-index="20" style="opacity: 1;"><g class="annotation-text-g" transform="rotate(0,350,389.70000000000005)"><g class="cursor-pointer" transform="translate(328,380)"><rect class="bg" x="0.5" y="0.5" width="43" height="18" style="stroke-width: 1px; stroke: rgb(0, 0, 0); stroke-opacity: 0; fill: rgb(0, 0, 0); fill-opacity: 0;"/><text class="annotation-text" text-anchor="middle" x="22.09375" y="14" style="font-family: 'Open Sans', verdana, arial, sans-serif; font-size: 12px; fill: rgb(42, 63, 95); fill-opacity: 1; white-space: pre;">25.7%</text></g></g></g><g class="annotation" data-index="21" style="opacity: 1;"><g class="annotation-text-g" transform="rotate(0,350,427.5)"><g class="cursor-pointer" transform="translate(333,419)"><rect class="bg" x="0.5" y="0.5" width="33" height="16" style="stroke-width: 1px; stroke: rgb(0, 0, 0); stroke-opacity: 0; fill: rgb(0, 0, 0); fill-opacity: 0;"/><text class="annotation-text" text-anchor="middle" x="17.0625" y="13" style="font-family: 'Open Sans', verdana, arial, sans-serif; font-size: 11px; fill: rgb(42, 63, 95); fill-opacity: 1; white-space: pre;">Otros</text></g></g></g></g></svg>