<svg class="main-svg" xmlns="http://www.w3.org/2000/svg" xmlns:xlink="http://www.w3.org/1999/xlink" width="700" height="500" style="" viewBox="0 0 700 500"><rect x="0" y="0" width="700" height="500" style="fill: rgb(255, 255, 255); fill-opacity: 1;"/><defs id="defs-80a4d1"><g class="clips"/><g class="gradients"/></defs><g class="bglayer"/><g class="layer-below"><g class="imagelayer"/><g class="shapelayer"/></g><g class="cartesianlayer"/><g class="polarlayer"/><g class="ternarylayer"/><g class="geolayer"/><g class="funnelarealayer"/><g class="pielayer"><g class="trace" stroke-linejoin="round" style="opacity: 1;"><g class="slice"><path class="surface" d="M142.77448793577213,148.57117760373652a23.249999999999996,23.249999999999996 0 1 0 15.225512064227875,-40.8211776037365l0,-7.749999999999999a30.999999999999996,30.999999999999996 0 1 1 -20.300682752303832,54.428236804982006Z" style="pointer-events: all; stroke-width: 0; fill: rgb(253, 157, 36); fill-opacity: 1; stroke: rgb(68, 68, 68); stroke-opacity: 1;"/></g><g class="slice"><path class="surface" d="M158,107.75a23.249999999999996,23.249999999999996 0 0 0 -15.225512064227878,40.821177603736494l-5.07517068807596,5.8570592012455a30.999999999999996,30.999999999999996 0 0 1 20.30068275230384,-54.42823680498199Z" style="pointer-events: all; stroke-width: 0; fill: rgb(211, 211, 211); fill-opacity: 1; stroke: rgb(68, 68, 68); stroke-opacity: 1;"/></g></g><g class="trace" stroke-linejoin="round" style="opacity: 1;"><g class="slice"><path class="surface" d="M327.69178836346293,137.55028194656325a23.249999999999996,23.249999999999996 0 1 0 22.30821163653706,-29.80028194656324l0,-7.749999999999999a30.999999999999996,30.999999999999996 0 1 1 -29.744282182049414,39.73370926208432Z" style="pointer-events: all; stroke-width: 0; fill: rgb(253, 157, 36); fill-opacity: 1; stroke: rgb(68, 68, 68); stroke-opacity: 1;"/></g><g class="slice"><path class="surface" d="M350,107.75a23.249999999999996,23.249999999999996 0 0 0 -22.30821163653706,29.80028194656324l-7.4360705455123535,2.1834273155210795a30.999999999999996,30.999999999999996 0 0 1 29.744282182049414,-39.73370926208432Z" style="pointer-events: all; stroke-width: 0; fill: rgb(211, 211, 211); fill-opacity: 1; stroke: rgb(68, 68, 68); stroke-opacity: 1;"/></g></g><g class="trace" stroke-linejoin="round" style="opacity: 1;"><g class="slice"><path class="surface" d="M532.3416009477062,152.14894389199256a23.249999999999996,23.249999999999996 0 1 0 9.65839905229386,-44.398943891992545l0,-7.749999999999999a30.999999999999996,30.999999999999996 0 1 1 -12.877865403058479,59.19859185599006Z" style="pointer-events: all; stroke-width: 0; fill: rgb(211, 211, 211); fill-opacity: 1; stroke: rgb(68, 68, 68); stroke-opacity: 1;"/></g><g class="slice"><path class="surface" d="M542,107.75a23.249999999999996,23.249999999999996 0 0 0 -9.658399052293856,44.398943891992545l-3.219466350764619,7.049647963997517a30.999999999999996,30.999999999999996 0 0 1 12.877865403058475,-59.19859185599006Z" style="pointer-events: all; stroke-width: 0; fill: rgb(253, 157, 36); fill-opacity: 1; stroke: rgb(68, 68, 68); stroke-opacity: 1;"/></g></g><g class="trace" stroke-linejoin="round" style="opacity: 1;"><g class="slice"><path class="surface" d="M158,193.75a23.249999999999996,23.249999999999996 0 1 0 2.8473038080175957e-15,46.49999999999999a23.249999999999996,23.249999999999996 0 1 0 -2.8473038080175957e-15,-46.49999999999999ZM158,186a30.999999999999996,30.999999999999996 0 1 1 3.796405077356794e-15,61.99999999999999a30.999999999999996,30.999999999999996 0 1 1 -3.796405077356794e-15,-61.99999999999999Z" style="pointer-events: all; stroke-width: 0; fill: rgb(211, 211, 211); fill-opacity: 1; stroke: rgb(68, 68, 68); stroke-opacity: 1;"/></g><g class="slice"><path class="surface" d="M158,193.75a23.249999999999996,23.249999999999996 0 0 0 0,0l0,-7.749999999999999a30.999999999999996,30.999999999999996 0 0 1 0,0Z" style="pointer-events: all; stroke-width: 0; fill: rgb(253, 157, 36); fill-opacity: 1; stroke: rgb(68, 68, 68); stroke-opacity: 1;"/></g></g><g class="trace" stroke-linejoin="round" style="opacity: 1;"><g class="slice"><path class="surface" d="M350,193.75a23.249999999999996,23.249999999999996 0 1 0 2.8473038080175957e-15,46.49999999999999a23.249999999999996,23.249999999999996 0 1 0 -2.8473038080175957e-15,-46.49999999999999ZM350,186a30.999999999999996,30.999999999999996 0 1 1 3.796405077356794e-15,61.99999999999999a30.999999999999996,30.999999999999996 0 1 1 -3.796405077356794e-15,-61.99999999999999Z" style="pointer-events: all; stroke-width: 0; fill: rgb(211, 211, 211); fill-opacity: 1; stroke: rgb(68, 68, 68); stroke-opacity: 1;"/></g><g class="slice"><path class="surface" d="M350,193.75a23.249999999999996,23.249999999999996 0 0 0 0,0l0,-7.749999999999999a30.999999999999996,30.999999999999996 0 0 1 0,0Z" style="pointer-events: all; stroke-width: 0; fill: rgb(253, 157, 36); fill-opacity: 1; stroke: rgb(68, 68, 68); stroke-opacity: 1;"/></g></g><g class="trace" stroke-linejoin="round" style="opacity: 1;"><g class="slice"><path class="surface" d="M518.9866514762683,220.30881998985387a23.249999999999996,23.249999999999996 0 1 0 23.013348523731683,-26.558819989853877l0,-7.749999999999999a30.999999999999996,30.999999999999996 0 1 1 -30.68446469830891,35.411759986471836Z" style="pointer-events: all; stroke-width: 0; fill: rgb(211, 211, 211); fill-opacity: 1; stroke: rgb(68, 68, 68); stroke-opacity: 1;"/></g><g class="slice"><path class="surface" d="M542,193.75a23.249999999999996,23.249999999999996 0 0 0 -23.013348523731686,26.558819989853873l-7.671116174577229,1.1029399966179587a30.999999999999996,30.999999999999996 0 0 1 30.684464698308915,-35.41175998647183Z" style="pointer-events: all; stroke-width: 0; fill: rgb(253, 157, 36); fill-opacity: 1; stroke: rgb(68, 68, 68); stroke-opacity: 1;"/></g></g><g class="trace" stroke-linejoin="round" style="opacity: 1;"><g class="slice"><path class="surface" d="M140.42882239626348,318.22551206422787a23.250000000000007,23.250000000000007 0 1 0 17.57117760373651,-38.47551206422789l0,-7.750000000000002a31.000000000000007,31.000000000000007 0 1 1 -23.42823680498201,51.30068275230386Z" style="pointer-events: all; stroke-width: 0; fill: rgb(211, 211, 211); fill-opacity: 1; stroke: rgb(68, 68, 68); stroke-opacity: 1;"/></g><g class="slice"><path class="surface" d="M158,279.75a23.250000000000007,23.250000000000007 0 0 0 -17.57117760373651,38.475512064227885l-5.857059201245503,5.07517068807596a31.000000000000007,31.000000000000007 0 0 1 23.428236804982014,-51.30068275230384Z" style="pointer-events: all; stroke-width: 0; fill: rgb(253, 157, 36); fill-opacity: 1; stroke: rgb(68, 68, 68); stroke-opacity: 1;"/></g></g><g class="trace" stroke-linejoin="round" style="opacity: 1;"><g class="slice"><path class="surface" d="M332.4288223962635,287.77448793577213a23.250000000000007,23.250000000000007 0 1 0 17.57117760373651,-8.024487935772118l0,-7.750000000000002a31.000000000000007,31.000000000000007 0 1 1 -23.42823680498201,10.699317247696158Z" style="pointer-events: all; stroke-width: 0; fill: rgb(211, 211, 211); fill-opacity: 1; stroke: rgb(68, 68, 68); stroke-opacity: 1;"/></g><g class="slice"><path class="surface" d="M350,279.75a23.250000000000007,23.250000000000007 0 0 0 -17.57117760373651,8.024487935772123l-5.8570592012455025,-5.075170688075961a31.000000000000007,31.000000000000007 0 0 1 23.42823680498201,-10.699317247696165Z" style="pointer-events: all; stroke-width: 0; fill: rgb(253, 157, 36); fill-opacity: 1; stroke: rgb(68, 68, 68); stroke-opacity: 1;"/></g></g><g class="trace" stroke-linejoin="round" style="opacity: 1;"><g class="slice"><path class="surface" d="M520.8510561080075,293.3416009477061a23.250000000000007,23.250000000000007 0 1 0 21.14894389199256,-13.591600947706151l0,-7.750000000000002a31.000000000000007,31.000000000000007 0 1 1 -28.19859185599008,18.122134596941535Z" style="pointer-events: all; stroke-width: 0; fill: rgb(211, 211, 211); fill-opacity: 1; stroke: rgb(68, 68, 68); stroke-opacity: 1;"/></g><g class="slice"><path class="surface" d="M542,279.75a23.250000000000007,23.250000000000007 0 0 0 -21.148943891992555,13.591600947706144l-7.0496479639975185,-3.2194663507646206a31.000000000000007,31.000000000000007 0 0 1 28.198591855990074,-18.122134596941525Z" style="pointer-events: all; stroke-width: 0; fill: rgb(253, 157, 36); fill-opacity: 1; stroke: rgb(68, 68, 68); stroke-opacity: 1;"/></g></g><g class="trace" stroke-linejoin="round" style="opacity: 1;"><g class="slice"><path class="surface" d="M332.4288223962635,404.22551206422787a23.25,23.25 0 1 0 17.5711776037365,-38.475512064227885l0,-7.75a31,31 0 1 1 -23.428236804982003,51.30068275230384Z" style="pointer-events: all; stroke-width: 0; fill: rgb(211, 211, 211); fill-opacity: 1; stroke: rgb(68, 68, 68); stroke-opacity: 1;"/></g><g class="slice"><path class="surface" d="M350,365.75a23.25,23.25 0 0 0 -17.57117760373651,38.47551206422788l-5.8570592012455025,5.075170688075959a31,31 0 0 1 23.42823680498201,-51.300682752303835Z" style="pointer-events: all; stroke-width: 0; fill: rgb(253, 157, 36); fill-opacity: 1; stroke: rgb(68, 68, 68); stroke-opacity: 1;"/></g></g></g><g class="treemaplayer"/><g class="sunburstlayer"/><g class="glimages"/><defs id="topdefs-80a4d1"><g class="clips"/></defs><g class="layer-above"><g class="imagelayer"/><g class="shapelayer"/></g><g class="infolayer"><g class="g-gtitle"><text class="gtitle" x="35" y="50" text-anchor="start" dy="0em" style="font-family: 'Open Sans', verdana, arial, sans-serif; font-size: 17px; fill: rgb(42, 63, 95); opacity: 1; font-weight: normal; white-space: pre;">Consideraciones para una infraestructura vial adecuada.</text></g><g class="annotation" data-index="0" style="opacity: 1;"><g class="annotation-text-g" transform="rotate(0,158.7,131.89999999999998)"><g class="cursor-pointer" transform="translate(137,122)"><rect class="bg" x="0.5" y="0.5" width="43" height="18" style="stroke-width: 1px; stroke: rgb(0, 0, 0); stroke-opacity: 0; fill: rgb(0, 0, 0); fill-opacity: 0;"/><text class="annotation-text" text-anchor="middle" x="22.09375" y="14" style="font-family: 'Open Sans', verdana, arial, sans-serif; font-size: 12px; fill: rgb(42, 63, 95); fill-opacity: 1; white-space: pre;">61.4%</text></g></g></g><g class="annotation" data-index="1" style="opacity: 1;"><g class="annotation-text-g" transform="rotate(0,159.9,169.29999999999998)"><g class="cursor-pointer" transform="translate(126,161)"><rect class="bg" x="0.5" y="0.5" width="67" height="16" style="stroke-width: 1px; stroke: rgb(0, 0, 0); stroke-opacity: 0; fill: rgb(0, 0, 0); fill-opacity: 0;"/><text class="annotation-text" text-anchor="middle" x="34.140625" y="13" style="font-family: 'Open Sans', verdana, arial, sans-serif; font-size: 11px; fill: rgb(42, 63, 95); fill-opacity: 1; white-space: pre;">Iluminación</text></g></g></g><g class="annotation" data-index="2" style="opacity: 1;"><g class="annotation-text-g" transform="rotate(0,350,131.89999999999998)"><g class="cursor-pointer" transform="translate(328,122)"><rect class="bg" x="0.5" y="0.5" width="43" height="18" style="stroke-width: 1px; stroke: rgb(0, 0, 0); stroke-opacity: 0; fill: rgb(0, 0, 0); fill-opacity: 0;"/><text class="annotation-text" text-anchor="middle" x="22.09375" y="14" style="font-family: 'Open Sans', verdana, arial, sans-serif; font-size: 12px; fill: rgb(42, 63, 95); fill-opacity: 1; white-space: pre;">70.5%</text></g></g></g><g class="annotation" data-index="3" style="opacity: 1;"><g class="annotation-text-g" transform="rotate(0,350,169.29999999999998)"><g class="cursor-pointer" transform="translate(329,161)"><rect class="bg" x="0.5" y="0.5" width="42" height="16" style="stroke-width: 1px; stroke: rgb(0, 0, 0); stroke-opacity: 0; fill: rgb(0, 0, 0); fill-opacity: 0;"/><text class="annotation-text" text-anchor="middle" x="21.5625" y="13" style="font-family: 'Open Sans', verdana, arial, sans-serif; font-size: 11px; fill: rgb(42, 63, 95); fill-opacity: 1; white-space: pre;">Baches</text></g></g></g><g class="annotation" data-index="4" style="opacity: 1;"><g class="annotation-text-g" transform="rotate(0,542.38,131.89999999999998)"><g class="cursor-pointer" transform="translate(520,122)"><rect class="bg" x="0.5" y="0.5" width="43" height="18" style="stroke-width: 1px; stroke: rgb(0, 0, 0); stroke-opacity: 0; fill: rgb(0, 0, 0); fill-opacity: 0;"/><text class="annotation-text" text-anchor="middle" x="22.09375" y="14" style="font-family: 'Open Sans', verdana, arial, sans-serif; font-size: 12px; fill: rgb(42, 63, 95); fill-opacity: 1; white-space: pre;">43.2%</text></g></g></g><g class="annotation" data-index="5" style="opacity: 1;"><g class="annotation-text-g" transform="rotate(0,543.1,169.29999999999998)"><g class="cursor-pointer" transform="translate(512,161)"><rect class="bg" x="0.5" y="0.5" width="61" height="16" style="stroke-width: 1px; stroke: rgb(0, 0, 0); stroke-opacity: 0; fill: rgb(0, 0, 0); fill-opacity: 0;"/><text class="annotation-text" text-anchor="middle" x="31.078125" y="13" style="font-family: 'Open Sans', verdana, arial, sans-serif; font-size: 11px; fill: rgb(42, 63, 95); fill-opacity: 1; white-space: pre;">Banquetas</text></g></g></g><g class="annotation" data-index="6" style="opacity: 1;"><g class="annotation-text-g" transform="rotate(0,155.2,216.8)"><g class="cursor-pointer" transform="translate(137,207)"><rect class="bg" x="0.5" y="0.5" width="36" height="18" style="stroke-width: 1px; stroke: rgb(0, 0, 0); stroke-opacity: 0; fill: rgb(0, 0, 0); fill-opacity: 0;"/><text class="annotation-text" text-anchor="middle" x="18.28125" y="14" style="font-family: 'Open Sans', verdana, arial, sans-serif; font-size: 12px; fill: rgb(42, 63, 95); fill-opacity: 1; white-space: pre;">0.0%</text></g></g></g><g class="annotation" data-index="7" style="opacity: 1;"><g class="annotation-text-g" transform="rotate(0,162.28,256.8)"><g class="cursor-pointer" transform="translate(124,248)"><rect class="bg" x="0.5" y="0.5" width="75" height="16" style="stroke-width: 1px; stroke: rgb(0, 0, 0); stroke-opacity: 0; fill: rgb(0, 0, 0); fill-opacity: 0;"/><text class="annotation-text" text-anchor="middle" x="37.9375" y="13.015625" style="font-family: 'Open Sans', verdana, arial, sans-serif; font-size: 11px; fill: rgb(42, 63, 95); fill-opacity: 1; white-space: pre;">Áreas verdes</text></g></g></g><g class="annotation" data-index="8" style="opacity: 1;"><g class="annotation-text-g" transform="rotate(0,350,216.8)"><g class="cursor-pointer" transform="translate(332,207)"><rect class="bg" x="0.5" y="0.5" width="36" height="18" style="stroke-width: 1px; stroke: rgb(0, 0, 0); stroke-opacity: 0; fill: rgb(0, 0, 0); fill-opacity: 0;"/><text class="annotation-text" text-anchor="middle" x="18.28125" y="14" style="font-family: 'Open Sans', verdana, arial, sans-serif; font-size: 12px; fill: rgb(42, 63, 95); fill-opacity: 1; white-space: pre;">0.0%</text></g></g></g><g class="annotation" data-index="9" style="opacity: 1;"><g class="annotation-text-g" transform="rotate(0,350,253.6)"><g class="cursor-pointer" transform="translate(259,245)"><rect class="bg" x="0.5" y="0.5" width="181" height="16" style="stroke-width: 1px; stroke: rgb(0, 0, 0); stroke-opacity: 0; fill: rgb(0, 0, 0); fill-opacity: 0;"/><text class="annotation-text" text-anchor="middle" x="91.171875" y="13.015625" style="font-family: 'Open Sans', verdana, arial, sans-serif; font-size: 11px; fill: rgb(42, 63, 95); fill-opacity: 1; white-space: pre;">Áreas públicas de esparcimiento</text></g></g></g><g class="annotation" data-index="10" style="opacity: 1;"><g class="annotation-text-g" transform="rotate(0,350,263.2)"><g class="cursor-pointer" transform="translate(314,255)"><rect class="bg" x="0.5" y="0.5" width="71" height="16" style="stroke-width: 1px; stroke: rgb(0, 0, 0); stroke-opacity: 0; fill: rgb(0, 0, 0); fill-opacity: 0;"/><text class="annotation-text" text-anchor="middle" x="35.8125" y="13" style="font-family: 'Open Sans', verdana, arial, sans-serif; font-size: 11px; fill: rgb(42, 63, 95); fill-opacity: 1; white-space: pre;">y recreación</text></g></g></g><g class="annotation" data-index="11" style="opacity: 1;"><g class="annotation-text-g" transform="rotate(0,541.3,216.8)"><g class="cursor-pointer" transform="translate(519,207)"><rect class="bg" x="0.5" y="0.5" width="43" height="18" style="stroke-width: 1px; stroke: rgb(0, 0, 0); stroke-opacity: 0; fill: rgb(0, 0, 0); fill-opacity: 0;"/><text class="annotation-text" text-anchor="middle" x="22.09375" y="14" style="font-family: 'Open Sans', verdana, arial, sans-serif; font-size: 12px; fill: rgb(42, 63, 95); fill-opacity: 1; white-space: pre;">27.3%</text></g></g></g><g class="annotation" data-index="12" style="opacity: 1;"><g class="annotation-text-g" transform="rotate(0,544.0999999999999,256.8)"><g class="cursor-pointer" transform="translate(501,248)"><rect class="bg" x="0.5" y="0.5" width="86" height="16" style="stroke-width: 1px; stroke: rgb(0, 0, 0); stroke-opacity: 0; fill: rgb(0, 0, 0); fill-opacity: 0;"/><text class="annotation-text" text-anchor="middle" x="43.484375" y="13" style="font-family: 'Open Sans', verdana, arial, sans-serif; font-size: 11px; fill: rgb(42, 63, 95); fill-opacity: 1; white-space: pre;">Pasos de cebra</text></g></g></g><g class="annotation" data-index="13" style="opacity: 1;"><g class="annotation-text-g" transform="rotate(0,158.7,304.9)"><g class="cursor-pointer" transform="translate(137,295)"><rect class="bg" x="0.5" y="0.5" width="43" height="18" style="stroke-width: 1px; stroke: rgb(0, 0, 0); stroke-opacity: 0; fill: rgb(0, 0, 0); fill-opacity: 0;"/><text class="annotation-text" text-anchor="middle" x="22.09375" y="14" style="font-family: 'Open Sans', verdana, arial, sans-serif; font-size: 12px; fill: rgb(42, 63, 95); fill-opacity: 1; white-space: pre;">36.4%</text></g></g></g><g class="annotation" data-index="14" style="opacity: 1;"><g class="annotation-text-g" transform="rotate(0,158,344.3)"><g class="cursor-pointer" transform="translate(94,336)"><rect class="bg" x="0.5" y="0.5" width="128" height="16" style="stroke-width: 1px; stroke: rgb(0, 0, 0); stroke-opacity: 0; fill: rgb(0, 0, 0); fill-opacity: 0;"/><text class="annotation-text" text-anchor="middle" x="64.609375" y="13" style="font-family: 'Open Sans', verdana, arial, sans-serif; font-size: 11px; fill: rgb(42, 63, 95); fill-opacity: 1; white-space: pre;">Rejas de alcantarillado</text></g></g></g><g class="annotation" data-index="15" style="opacity: 1;"><g class="annotation-text-g" transform="rotate(0,350,304.9)"><g class="cursor-pointer" transform="translate(328,295)"><rect class="bg" x="0.5" y="0.5" width="43" height="18" style="stroke-width: 1px; stroke: rgb(0, 0, 0); stroke-opacity: 0; fill: rgb(0, 0, 0); fill-opacity: 0;"/><text class="annotation-text" text-anchor="middle" x="22.09375" y="14" style="font-family: 'Open Sans', verdana, arial, sans-serif; font-size: 12px; fill: rgb(42, 63, 95); fill-opacity: 1; white-space: pre;">13.6%</text></g></g></g><g class="annotation" data-index="16" style="opacity: 1;"><g class="annotation-text-g" transform="rotate(0,350,344.3)"><g class="cursor-pointer" transform="translate(312,336)"><rect class="bg" x="0.5" y="0.5" width="75" height="16" style="stroke-width: 1px; stroke: rgb(0, 0, 0); stroke-opacity: 0; fill: rgb(0, 0, 0); fill-opacity: 0;"/><text class="annotation-text" text-anchor="middle" x="37.890625" y="13" style="font-family: 'Open Sans', verdana, arial, sans-serif; font-size: 11px; fill: rgb(42, 63, 95); fill-opacity: 1; white-space: pre;">Pasos a nivel</text></g></g></g><g class="annotation" data-index="17" style="opacity: 1;"><g class="annotation-text-g" transform="rotate(0,541.3,304.9)"><g class="cursor-pointer" transform="translate(519,295)"><rect class="bg" x="0.5" y="0.5" width="43" height="18" style="stroke-width: 1px; stroke: rgb(0, 0, 0); stroke-opacity: 0; fill: rgb(0, 0, 0); fill-opacity: 0;"/><text class="annotation-text" text-anchor="middle" x="22.09375" y="14" style="font-family: 'Open Sans', verdana, arial, sans-serif; font-size: 12px; fill: rgb(42, 63, 95); fill-opacity: 1; white-space: pre;">18.2%</text></g></g></g><g class="annotation" data-index="18" style="opacity: 1;"><g class="annotation-text-g" transform="rotate(0,542.2,337.9)"><g class="cursor-pointer" transform="translate(475,329)"><rect class="bg" x="0.5" y="0.5" width="133" height="16" style="stroke-width: 1px; stroke: rgb(0, 0, 0); stroke-opacity: 0; fill: rgb(0, 0, 0); fill-opacity: 0;"/><text class="annotation-text" text-anchor="middle" x="66.84375" y="13.015625" style="font-family: 'Open Sans', verdana, arial, sans-serif; font-size: 11px; fill: rgb(42, 63, 95); fill-opacity: 1; white-space: pre;">Áreas de esparcimiento</text></g></g></g><g class="annotation" data-index="19" style="opacity: 1;"><g class="annotation-text-g" transform="rotate(0,544.5,350.70000000000005)"><g class="cursor-pointer" transform="translate(523,342)"><rect class="bg" x="0.5" y="0.5" width="42" height="16" style="stroke-width: 1px; stroke: rgb(0, 0, 0); stroke-opacity: 0; fill: rgb(0, 0, 0); fill-opacity: 0;"/><text class="annotation-text" text-anchor="middle" x="21.5625" y="13" style="font-family: 'Open Sans', verdana, arial, sans-serif; font-size: 11px; fill: rgb(42, 63, 95); fill-opacity: 1; white-space: pre;">público</text></g></g></g><g class="annotation" data-index="20" style="opacity: 1;"><g class="annotation-text-g" transform="rotate(0,350,389.70000000000005)"><g class="cursor-pointer" transform="translate(328,380)"><rect class="bg" x="0.5" y="0.5" width="43" height="18" style="stroke-width: 1px; stroke: rgb(0, 0, 0); stroke-opacity: 0; fill: rgb(0, 0, 0); fill-opacity: 0;"/><text class="annotation-text" text-anchor="middle" x="22.09375" y="14" style="font-family: 'Open Sans', verdana, arial, sans-serif; font-size: 12px; fill: rgb(42, 63, 95); fill-opacity: 1; white-space: pre;">36.4%</text></g></g></g><g class="annotation" data-index="21" style="opacity: 1;"><g class="annotation-text-g" transform="rotate(0,350,427.5)"><g class="cursor-pointer" transform="translate(333,419)"><rect class="bg" x="0.5" y="0.5" width="33" height="16" style="stroke-width: 1px; stroke: rgb(0, 0, 0); stroke-opacity: 0; fill: rgb(0, 0, 0); fill-opacity: 0;"/><text class="annotation-text" text-anchor="middle" x="17.0625" y="13" style="font-family: 'Open Sans', verdana, arial, sans-serif; font-size: 11px; fill: rgb(42, 63, 95); fill-opacity: 1; white-space: pre;">Otros</text></g></g></g></g></svg>